# xmcd CD database file
#
# Track frame offsets:
#	150
#	14660
#	29220
#	45212
#	60737
#	75187
#	88360
#	100280
#	115890
#	129342
#	142715
#	154807
#	167455
#	179752
#	194650
#	208900
#
# Disc length: 2996 seconds
#
# Revision: 0
# Processed by: cddbd v1.5.2PL0 Copyright (c) Steve Scherf et al.
# Submitted via: CDex 1.70beta2
#
DISCID=dd0bb210
DTITLE=小川知子 - Best Collection
DYEAR=1990
DGENRE=歌謡曲
TTITLE0=ゆうべの秘密
TTITLE1=初恋のひと
TTITLE2=恋のときめき
TTITLE3=思いがけない別れ
TTITLE4=銀色の雨
TTITLE5=あなたと生きる
TTITLE6=あなたに夢中なの
TTITLE7=恋のぬくもり
TTITLE8=ボンジュール涙
TTITLE9=別れてよかった
TTITLE10=恋は狼
TTITLE11=風に吹かれて
TTITLE12=若草の頃
TTITLE13=愛こそいちずに
TTITLE14=恋のなごり
TTITLE15=誰もいない処で
EXTD=YEAR: 1990
EXTT0=
EXTT1=
EXTT2=
EXTT3=
EXTT4=
EXTT5=
EXTT6=
EXTT7=
EXTT8=
EXTT9=
EXTT10=
EXTT11=
EXTT12=
EXTT13=
EXTT14=
EXTT15=
PLAYORDER=
